# xmcd
# 
# Track frame offsets:
#     150
#     26614
#     48577
#     69010
#     91317
#     111783
#     135175
#     159493
#     179195
#     202229
#     223169
#     242280
#     261358
#     283959
# 
# Disc length: 4107
# 
# Revision: 18
# Processed by: cddbd v1.5.2PL0 Copyright (c) Steve Scherf et al.
# Submitted via: BonkEnc v1.0.8
# 
DISCID=d010090e
DTITLE=Maná - Grandes Exitos
DYEAR=1999
DGENRE=Latin
TTITLE0=En el muelle de San Blas
TTITLE1=Vivir sin aire
TTITLE2=Oye mi amor
TTITLE3=Te lloré un río
TTITLE4=Cómo te deseo
TTITLE5=Clavado en un bar
TTITLE6=No ha parado de llover
TTITLE7=Déjame entrar
TTITLE8=Cuando los ángeles lloran
TTITLE9=De pies a cabeza
TTITLE10=Perdido en un barco
TTITLE11=Rayando el sol
TTITLE12=Hechicera
TTITLE13=Un lobo por tu amor
EXTD=capitals YEAR: 1999 ID3G: 86
EXTT0=
EXTT1=
EXTT2=
EXTT3=
EXTT4=
EXTT5=
EXTT6=
EXTT7=
EXTT8=
EXTT9=
EXTT10=
EXTT11=
EXTT12=
EXTT13=
PLAYORDER=
